Coordinates
version=1
nRows=18
nColumns=63
inDegrees=yes

Units are S.I. units (second, meters, Newtons, ...)
If the header above contains a line with 'inDegrees', this indicates whether rotational values are in degrees (yes) or radians (no).

endheader
time	pelvis_tilt	pelvis_list	pelvis_rotation	pelvis_tx	pelvis_ty	pelvis_tz	hip_flexion_r	hip_adduction_r	hip_rotation_r	knee_angle_r	knee_angle_r_beta	ankle_angle_r	subtalar_angle_r	mtp_angle_r	hip_flexion_l	hip_adduction_l	hip_rotation_l	knee_angle_l	knee_angle_l_beta	ankle_angle_l	subtalar_angle_l	mtp_angle_l	L5_S1_Flex_Ext	L5_S1_Lat_Bending	L5_S1_axial_rotation	L4_L5_Flex_Ext	L4_L5_Lat_Bending	L4_L5_axial_rotation	L3_L4_Flex_Ext	L3_L4_Lat_Bending	L3_L4_axial_rotation	L2_L3_Flex_Ext	L2_L3_Lat_Bending	L2_L3_axial_rotation	L1_L2_Flex_Ext	L1_L2_Lat_Bending	L1_L2_axial_rotation	L1_T12_Flex_Ext	L1_T12_Lat_Bending	L1_T12_axial_rotation	Abs_r3	Abs_r2	Abs_r1	Abs_t1	Abs_t2	neck_flexion	neck_bending	neck_rotation	arm_flex_r	arm_add_r	arm_rot_r	elbow_flex_r	pro_sup_r	wrist_flex_r	wrist_dev_r	arm_flex_l	arm_add_l	arm_rot_l	elbow_flex_l	pro_sup_l	wrist_flex_l	wrist_dev_l
0.000000	-2.199035	-5.224812	84.368313	0.167432	1.108271	0.479458	9.977556	-3.372175	-4.552972	10.739960	0.187448	37.894237	20.957547	0.000000	9.043681	2.855123	3.381735	7.889713	0.137701	35.500761	-5.219426	0.000000	0.305650	-0.593198	1.670522	0.567622	-0.788953	1.774930	0.502152	-1.442300	1.774930	0.349327	-1.442300	1.461707	0.283826	-1.209648	1.357299	0.174648	-0.918863	1.252892	2.183225	-6.710369	9.290942	0.000000	0.000000	28.244634	0.673403	1.614232	15.492069	-8.770762	15.730981	39.274296	86.454747	-7.332081	8.931626	14.447553	-12.310175	40.948292	30.607959	78.438331	-11.905382	-1.446174
0.020000	-1.900934	-5.360332	85.762209	0.165878	1.108182	0.476610	9.276640	-3.112270	-3.805266	9.695058	0.169211	37.157128	18.091901	0.000000	8.957112	2.739652	5.830443	7.720409	0.134747	34.797636	-5.916650	0.000000	0.348148	-0.585723	1.363661	0.646545	-0.779012	1.448890	0.571972	-1.424127	1.448890	0.397898	-1.424127	1.193204	0.323290	-1.194406	1.107975	0.198932	-0.907285	1.022746	2.486785	-6.625816	7.584276	0.000000	0.000000	28.246098	1.073484	0.927773	18.183913	-9.052094	20.416709	38.607683	86.521908	-8.080997	7.217805	17.968350	-11.968914	47.316807	28.406404	87.290661	-12.467151	-1.124285
0.040000	-1.626439	-5.487262	86.989479	0.164464	1.108349	0.474136	8.665306	-2.867600	-3.108182	8.765086	0.152980	36.421416	15.550219	0.000000	8.856267	2.626142	8.050184	7.476722	0.130493	34.132357	-6.586185	0.000000	0.387725	-0.573210	1.089278	0.720045	-0.762370	1.157358	0.636994	-1.393703	1.157358	0.443131	-1.393703	0.953118	0.360042	-1.168890	0.885038	0.221546	-0.887903	0.816959	2.769483	-6.484269	6.058238	0.000000	0.000000	28.248571	1.395180	0.592114	20.890796	-9.110151	24.526783	38.185271	86.449874	-8.556515	5.837901	21.304656	-11.506563	52.316209	26.958838	92.868870	-12.764671	-1.059431
0.060000	-1.374786	-5.603586	88.060519	0.163186	1.108747	0.472018	8.136394	-2.638468	-2.468751	7.946049	0.138685	35.693726	13.323840	0.000000	8.743236	2.514811	10.039048	7.173574	0.125202	33.506852	-7.215141	0.000000	0.424267	-0.556313	0.845256	0.787906	-0.739896	0.898085	0.697028	-1.352618	0.898085	0.484894	-1.352618	0.739599	0.393974	-1.134432	0.686771	0.242426	-0.861728	0.633942	3.030494	-6.293118	4.701061	0.000000	0.000000	28.251616	1.645254	0.563846	23.607506	-8.972320	28.132160	37.970139	86.265343	-8.799761	4.735738	24.458761	-10.946545	56.068370	26.190610	95.535782	-12.826384	-1.211340
0.080000	-1.145212	-5.707291	88.985726	0.162043	1.109346	0.470241	7.682740	-2.425180	-1.894003	7.233952	0.126256	34.980683	11.404106	0.000000	8.620113	2.405882	11.795123	6.825886	0.119134	32.923049	-7.790627	0.000000	0.457657	-0.535683	0.629480	0.849914	-0.712459	0.668822	0.751884	-1.302460	0.668822	0.523056	-1.302460	0.550795	0.424980	-1.092365	0.511452	0.261505	-0.829773	0.472110	3.268997	-6.059754	3.500976	0.000000	0.000000	28.254793	1.830469	0.799557	26.328830	-8.665986	31.303803	37.925366	85.995013	-8.851861	3.855141	27.432953	-10.312284	58.695161	26.027070	95.654217	-12.680729	-1.539734
0.100000	-0.936952	-5.796363	89.775498	0.161030	1.110121	0.468788	7.297183	-2.228040	-1.390969	6.624798	0.115625	34.288911	9.782359	0.000000	8.488988	2.299573	13.316498	6.448576	0.112549	32.382878	-8.299754	0.000000	0.487780	-0.511975	0.439832	0.905857	-0.680927	0.467322	0.801375	-1.244817	0.467322	0.557484	-1.244817	0.384853	0.452953	-1.044020	0.357364	0.278718	-0.793050	0.329874	3.484167	-5.791567	2.446216	0.000000	0.000000	28.257666	1.957588	1.255836	29.049553	-8.218536	34.112669	38.014028	85.665580	-8.753940	3.139934	30.229519	-9.627203	60.318455	26.393569	93.586997	-12.356147	-2.004338
0.120000	-0.749243	-5.868787	90.440231	0.160146	1.111042	0.467644	6.972561	-2.047352	-0.966678	6.114594	0.106720	33.625035	8.449937	0.000000	8.351953	2.196106	14.601262	6.056567	0.105707	31.888267	-8.729631	0.000000	0.514522	-0.485842	0.274199	0.955520	-0.646170	0.291336	0.845309	-1.181277	0.291336	0.588048	-1.181277	0.239924	0.477786	-0.990730	0.222786	0.293998	-0.752570	0.205649	3.675183	-5.495945	1.525011	0.000000	0.000000	28.259797	2.033374	1.889272	31.764463	-7.657356	36.629720	38.199206	85.303743	-8.547126	2.533942	32.850749	-8.914725	61.060124	27.215457	89.696945	-11.881080	-2.564877
0.140000	-0.581319	-5.922548	90.990322	0.159386	1.112082	0.466792	6.701710	-1.883421	-0.628162	5.699344	0.099472	32.995681	7.398184	0.000000	8.211099	2.095700	15.647504	5.664778	0.098869	31.441144	-9.067369	0.000000	0.537768	-0.457938	0.130463	0.998688	-0.609057	0.138617	0.883498	-1.113429	0.138617	0.614615	-1.113429	0.114155	0.499371	-0.933826	0.106001	0.307280	-0.709345	0.097847	3.841220	-5.180281	0.725594	0.000000	0.000000	28.260746	2.064592	2.656456	34.468346	-7.009832	38.925916	38.443977	84.936199	-8.272544	1.980990	35.298931	-8.198273	61.042040	28.418083	84.346881	-11.283967	-3.181076
0.160000	-0.432418	-5.955634	91.436169	0.158750	1.113215	0.466215	6.477469	-1.736552	-0.382451	5.375053	0.093812	32.407473	6.618439	0.000000	8.068520	1.998576	16.453314	5.288130	0.092295	31.043439	-9.300078	0.000000	0.557401	-0.428914	0.006508	1.035149	-0.570456	0.006915	0.915753	-1.042862	0.006915	0.637053	-1.042862	0.005695	0.517602	-0.874642	0.005288	0.318499	-0.664388	0.004881	3.981456	-4.851963	0.036197	0.000000	0.000000	28.260077	2.058005	3.513975	37.155989	-6.303351	41.072215	38.711419	84.589644	-7.971321	1.424902	37.576354	-7.501271	60.386077	29.926797	77.899627	-10.593250	-3.812659
0.180000	-0.301775	-5.966030	91.788167	0.158233	1.114412	0.465899	6.292676	-1.607048	-0.236575	5.137726	0.089670	31.867035	6.102044	0.000000	7.926306	1.904955	17.016780	4.941544	0.086246	30.697079	-9.414867	0.000000	0.573306	-0.399426	-0.099780	1.064687	-0.531236	-0.106017	0.941885	-0.971163	-0.106017	0.655232	-0.971163	-0.087308	0.532372	-0.814509	-0.081072	0.327587	-0.618710	-0.074835	4.095068	-4.518382	-0.554949	0.000000	0.000000	28.257351	2.020375	4.418420	39.822178	-5.565299	43.139579	38.964612	84.290778	-7.684582	0.809503	39.685305	-6.847143	59.214105	31.666950	70.718006	-9.837368	-4.419350
0.200000	-0.188626	-5.951722	92.056714	0.157832	1.115646	0.465825	6.140168	-1.495215	-0.197565	4.983368	0.086976	31.380992	5.840340	0.000000	7.786548	1.815055	17.335991	4.639939	0.080982	30.403994	-9.398847	0.000000	0.585369	-0.370125	-0.190519	1.087089	-0.492266	-0.202427	0.961703	-0.899922	-0.202427	0.669018	-0.899922	-0.166704	0.543574	-0.754759	-0.154797	0.334480	-0.573324	-0.142890	4.181233	-4.186927	-1.059612	0.000000	0.000000	28.252131	1.958467	5.326379	42.461700	-4.823061	45.198967	39.166633	84.066297	-7.453455	0.078618	41.628073	-6.259311	57.647997	33.563891	63.164838	-9.044762	-4.960875
0.220000	-0.119341	-5.885448	92.251946	0.157658	1.116933	0.466076	5.981615	-1.419645	-0.227388	4.919946	0.085869	30.889393	5.700910	0.000000	7.633166	1.761560	17.455638	4.418901	0.077124	30.111847	-9.315164	0.000000	0.589573	-0.347701	-0.296781	1.094895	-0.462442	-0.315330	0.968609	-0.845400	-0.315330	0.673822	-0.845400	-0.259683	0.547477	-0.709032	-0.241134	0.336882	-0.538589	-0.222586	4.211258	-3.933262	-1.650606	0.000000	0.000000	28.239305	2.032352	6.175987	45.322099	-4.188212	47.910002	39.127983	84.064002	-7.657482	-1.330119	43.684910	-5.843803	56.482547	35.122391	57.649716	-8.426066	-5.150887
0.240000	-0.058635	-5.786505	92.388958	0.157585	1.118114	0.466572	5.843494	-1.362739	-0.477204	4.944644	0.086300	30.521168	5.936566	0.000000	7.501375	1.698963	17.162267	4.327226	0.075524	29.922934	-8.920928	0.000000	0.589408	-0.326017	-0.379082	1.094589	-0.433602	-0.402774	0.968338	-0.792677	-0.402774	0.673634	-0.792677	-0.331697	0.547324	-0.664813	-0.308004	0.336788	-0.505000	-0.284311	4.210082	-3.687964	-2.108340	0.000000	0.000000	28.226565	2.038864	6.836549	48.078570	-3.633423	50.833587	38.899167	84.212997	-8.082814	-3.140485	45.376574	-5.626145	54.902254	36.870275	52.319201	-7.809626	-5.282966
0.260000	0.010181	-5.658747	92.467915	0.157600	1.119193	0.467265	5.725817	-1.306136	-0.906889	5.046399	0.088076	30.278488	6.511968	0.000000	7.390657	1.612756	16.523283	4.355126	0.076011	29.831783	-8.273159	0.000000	0.586261	-0.302592	-0.440238	1.088745	-0.402447	-0.467753	0.963168	-0.735721	-0.467753	0.670038	-0.735721	-0.385208	0.544402	-0.617045	-0.357693	0.334990	-0.468714	-0.330179	4.187604	-3.422977	-2.448472	0.000000	0.000000	28.210156	2.007263	7.377567	50.759867	-3.097735	54.222673	38.363335	84.517289	-8.903541	-5.377280	46.711760	-5.579042	52.946857	38.690253	47.570245	-7.180282	-5.239671
0.280000	0.074580	-5.500291	92.520794	0.157659	1.120182	0.468099	5.613274	-1.267204	-1.544233	5.207365	0.090886	30.172723	7.427906	0.000000	7.302483	1.517968	15.547324	4.506804	0.078659	29.845327	-7.309494	0.000000	0.579367	-0.280615	-0.483209	1.075943	-0.373218	-0.513410	0.951842	-0.682287	-0.513410	0.662159	-0.682287	-0.422808	0.538000	-0.572230	-0.392608	0.331050	-0.434672	-0.362407	4.138362	-3.174370	-2.687465	0.000000	0.000000	28.191561	1.905248	7.654852	53.307190	-2.686269	57.749302	37.669215	84.994310	-9.733642	-7.806098	47.805868	-5.669996	50.942476	40.464344	43.164682	-6.562631	-5.009570
0.300000	0.135573	-5.325475	92.559312	0.157734	1.121078	0.469015	5.512556	-1.243365	-2.361356	5.417039	0.094545	30.190769	8.615694	0.000000	7.240533	1.419158	14.344867	4.757699	0.083038	29.939500	-6.124139	0.000000	0.570984	-0.259986	-0.513419	1.060374	-0.345781	-0.545507	0.938069	-0.632130	-0.545507	0.652577	-0.632130	-0.449241	0.530216	-0.530163	-0.417153	0.326260	-0.402718	-0.385064	4.078480	-2.941013	-2.855480	0.000000	0.000000	28.168534	1.762692	7.729553	55.713775	-2.420494	61.345270	36.860360	85.636419	-10.488277	-10.273269	48.733488	-5.865337	49.106117	42.069372	39.181071	-6.003945	-4.545220
0.320000	0.183507	-5.134232	92.570056	0.157853	1.121884	0.469938	5.413209	-1.235263	-3.201910	5.661082	0.098805	30.298701	9.885861	0.000000	7.187797	1.329038	13.051281	5.081745	0.088693	30.063824	-4.893042	0.000000	0.560968	-0.242464	-0.531475	1.041774	-0.322477	-0.564692	0.921614	-0.589527	-0.564692	0.641130	-0.589527	-0.465040	0.520915	-0.494433	-0.431823	0.320537	-0.375577	-0.398606	4.006938	-2.742802	-2.955902	0.000000	0.000000	28.138870	1.583706	7.584677	57.913115	-2.290910	64.650417	36.025230	86.506203	-10.965649	-12.440626	49.597021	-6.122947	47.710863	43.374360	35.806973	-5.495870	-3.829091
0.340000	0.223544	-4.925953	92.554559	0.158000	1.122598	0.470839	5.306487	-1.231882	-3.976755	5.925986	0.103428	30.451020	11.092399	0.000000	7.137897	1.240221	11.694384	5.467035	0.095418	30.216093	-3.613689	0.000000	0.548747	-0.226507	-0.545193	1.019079	-0.301255	-0.579268	0.901537	-0.550730	-0.579268	0.627163	-0.550730	-0.477044	0.509567	-0.461894	-0.442970	0.313554	-0.350860	-0.408895	3.919648	-2.562298	-3.032202	0.000000	0.000000	28.103364	1.338167	7.292805	59.984266	-2.228046	67.891771	35.082711	87.550511	-11.275242	-14.379895	50.470070	-6.450866	46.990406	44.349163	33.207861	-5.078757	-2.891904
